{"title":"TACTICAL{2009}DVDRip.aaaevilacharya","uid":6087402,"size":726331478,"categoryP":"video","categoryS":"movies","magnet":"?xt=urn:btih:96c32ea839c3541501394a753f51cd9ecaa87e72&amp;dn=TACTICAL%7B2009%7DDVDRip.aaaevilacharya&amp;tr=udp%3A%2F%2Ftracker.openbittorrent.com%3A80&amp;tr=udp%3A%2F%2Fopen.demonii.com%3A1337&amp;tr=udp%3A%2F%2Ftracker.coppersurfer.tk%3A6969&amp;tr=udp%3A%2F%2Fexodus.desync.com%3A6969","seeders":0,"leechers":1,"uploader":"achaevil","files":-1,"time":1294392132,"description":"General\n\nComplete name                    : T.A.C.T.I.C.A.L{2009}DVDRip.aaaevilacharya.mkv\nFormat                           : Matroska\nFile size                        : 693 MiB\nDuration                         : 1h 50mn\nOverall bit rate                 : 980 Kbps\nMovie name                       : aaaevilacharya{TiRG}\n\n\nVideo\nID                               : 1\nFormat                           : MPEG-4 Visual\nFormat profile                   : Advanced Simple@L5\nFormat settings, BVOP            : Yes\nFormat settings, QPel            : No\nFormat settings, GMC             : No warppoints\nFormat settings, Matrix          : Default (H.263)\nCodec ID                         : XVID\nCodec ID/Hint                    : XviD\nDuration                         : 1h 50mn\nBit rate                         : 834 Kbps\nWidth                            : 720 pixels\nHeight                           : 352 pixels\nDisplay aspect ratio             : 2.35:1\nOriginal display aspect ratio    : 16:9\nFrame rate                       : 23.976 fps\nColor space                      : YUV\nChroma subsampling               : 4:2:0\nBit depth                        : 8 bits\nScan type                        : Progressive\nBits/(Pixel*Frame)               : 0.136\nStream size                      : 578 MiB (83%)\nTitle                            : aaaevilacharya{TiRG}\nWriting library                  : XviD 1.2.1 \nLanguage                         : English\n\nAudio\nID                               : 2\nFormat                           : MPEG Audio\nFormat version                   : Version 1\nFormat profile                   : Layer 3\nMode                             : Joint stereo\nMode extension                   : MS Stereo\nCodec ID                         : A_MPEG/L3\nCodec ID/Hint                    : MP3\nDuration                         : 1h 47mn\nBit rate mode                    : Variable\nBit rate                         : 128 Kbps\nChannel(s)                       : 2 channels\nSampling rate                    : 48.0 KHz\nStream size                      : 98.2 MiB (14%)\nTitle                            : aaaevilacharya{TiRG}\nWriting library                  : LAME3.90.\n\nLanguage                         : English\n\nSCREENSHOTS\n &lt;a href=&quot;\nhttp://img12.imageshack.us/img12/5705/4551051020a.jpg&quot; rel=&quot;nofollow&quot; target=&quot;_NEW&quot;&gt;\nhttp://img12.imageshack.us/img12/5705/4551051020a.jpg&lt;/a&gt; &lt;a href=&quot;\nhttp://img26.imageshack.us/img26/8320/vlcsnap2011010713h45m55.png&quot; rel=&quot;nofollow&quot; target=&quot;_NEW&quot;&gt;\nhttp://img26.imageshack.us/img26/8320/vlcsnap2011010713h45m55.png&lt;/a&gt; &lt;a href=&quot;\nhttp://img411.imageshack.us/img411/6556/vlcsnap2011010713h37m44.png&quot; rel=&quot;nofollow&quot; target=&quot;_NEW&quot;&gt;\nhttp://img411.imageshack.us/img411/6556/vlcsnap2011010713h37m44.png&lt;/a&gt; &lt;a href=&quot;\nhttp://img33.imageshack.us/img33/3489/vlcsnap2011010713h38m33.png&quot; rel=&quot;nofollow&quot; target=&quot;_NEW&quot;&gt;\nhttp://img33.imageshack.us/img33/3489/vlcsnap2011010713h38m33.png&lt;/a&gt; &lt;a href=&quot;\nhttp://img33.imageshack.us/img33/4302/vlcsnap2011010713h40m24.png&quot; rel=&quot;nofollow&quot; target=&quot;_NEW&quot;&gt;\nhttp://img33.imageshack.us/img33/4302/vlcsnap2011010713h40m24.png&lt;/a&gt; &lt;a href=&quot;\nhttp://img814.imageshack.us/img814/511/vlcsnap2011010713h40m45.png&quot; rel=&quot;nofollow&quot; target=&quot;_NEW&quot;&gt;\nhttp://img814.imageshack.us/img814/511/vlcsnap2011010713h40m45.png&lt;/a&gt; &lt;a href=&quot;\nhttp://img525.imageshack.us/img525/4677/vlcsnap2011010713h42m02.png&quot; rel=&quot;nofollow&quot; target=&quot;_NEW&quot;&gt;\nhttp://img525.imageshack.us/img525/4677/vlcsnap2011010713h42m02.png&lt;/a&gt; &lt;a href=&quot;\nhttp://img585.imageshack.us/img585/410/vlcsnap2011010713h42m18.png&quot; rel=&quot;nofollow&quot; target=&quot;_NEW&quot;&gt;\nhttp://img585.imageshack.us/img585/410/vlcsnap2011010713h42m18.png&lt;/a&gt;\n","torrent":{"xt":"urn:btih:96c32ea839c3541501394a753f51cd9ecaa87e72","amp;dn":"TACTICAL%7B2009%7DDVDRip.aaaevilacharya","amp;tr":["udp%3A%2F%2Ftracker.openbittorrent.com%3A80","udp%3A%2F%2Fopen.demonii.com%3A1337","udp%3A%2F%2Ftracker.coppersurfer.tk%3A6969","udp%3A%2F%2Fexodus.desync.com%3A6969"],"infoHash":"96c32ea839c3541501394a753f51cd9ecaa87e72","infoHashBuffer":{"type":"Buffer","data":[150,195,46,168,57,195,84,21,1,57,74,117,63,81,205,158,202,168,126,114]},"announce":[],"urlList":[]}}